<mxfile host="Electron" modified="2023-12-05T16:20:20.021Z" agent="Mozilla/5.0 (Windows NT 10.0; Win64; x64) AppleWebKit/537.36 (KHTML, like Gecko) draw.io/22.0.3 Chrome/114.0.5735.289 Electron/25.8.4 Safari/537.36" etag="ClyIYnyrAjQWNPsy32_l" version="22.0.3" type="device">
  <diagram name="Page-1" id="dQq_sxYRf2Paqsmh5ATd">
    <mxGraphModel dx="863" dy="1656" grid="1" gridSize="10" guides="1" tooltips="1" connect="1" arrows="1" fold="1" page="1" pageScale="1" pageWidth="850" pageHeight="1100" math="0" shadow="0">
      <root>
        <mxCell id="0" />
        <mxCell id="1" parent="0" />
        <mxCell id="t8uLsHS5nV-Fre8a65G6-3" value="" style="edgeStyle=orthogonalEdgeStyle;rounded=0;orthogonalLoop=1;jettySize=auto;html=1;" parent="1" source="tjU1ZiBi68Wq3k_pRqq8-1" target="t8uLsHS5nV-Fre8a65G6-2" edge="1">
          <mxGeometry relative="1" as="geometry" />
        </mxCell>
        <mxCell id="t8uLsHS5nV-Fre8a65G6-1" value="start" style="ellipse;whiteSpace=wrap;html=1;" parent="1" vertex="1">
          <mxGeometry x="365" y="-150" width="120" height="80" as="geometry" />
        </mxCell>
        <mxCell id="t8uLsHS5nV-Fre8a65G6-5" value="" style="edgeStyle=orthogonalEdgeStyle;rounded=0;orthogonalLoop=1;jettySize=auto;html=1;" parent="1" source="t8uLsHS5nV-Fre8a65G6-2" target="t8uLsHS5nV-Fre8a65G6-4" edge="1">
          <mxGeometry relative="1" as="geometry" />
        </mxCell>
        <mxCell id="t8uLsHS5nV-Fre8a65G6-2" value="input n" style="rhombus;whiteSpace=wrap;html=1;" parent="1" vertex="1">
          <mxGeometry x="385" y="180" width="80" height="80" as="geometry" />
        </mxCell>
        <mxCell id="t8uLsHS5nV-Fre8a65G6-7" value="" style="edgeStyle=orthogonalEdgeStyle;rounded=0;orthogonalLoop=1;jettySize=auto;html=1;" parent="1" source="t8uLsHS5nV-Fre8a65G6-4" target="t8uLsHS5nV-Fre8a65G6-6" edge="1">
          <mxGeometry relative="1" as="geometry" />
        </mxCell>
        <mxCell id="t8uLsHS5nV-Fre8a65G6-4" value="&lt;div style=&quot;color: rgb(204, 204, 204); background-color: rgb(31, 31, 31); font-family: Consolas, &amp;quot;Courier New&amp;quot;, monospace; font-size: 14px; line-height: 19px;&quot;&gt;&lt;div style=&quot;line-height: 19px;&quot;&gt;&lt;div&gt;f05&amp;nbsp;&lt;span style=&quot;color: #d4d4d4;&quot;&gt;=&lt;/span&gt; &lt;span style=&quot;color: #dcdcaa;&quot;&gt;fopen&lt;/span&gt;(&lt;span style=&quot;color: #ce9178;&quot;&gt;&quot;bt5.txt&quot;&lt;/span&gt;,&lt;span style=&quot;color: #ce9178;&quot;&gt;&quot;w&quot;&lt;/span&gt;);&lt;/div&gt;&lt;div&gt;&amp;nbsp; &amp;nbsp; &lt;span style=&quot;color: #9cdcfe;&quot;&gt;f01&lt;/span&gt; &lt;span style=&quot;color: #d4d4d4;&quot;&gt;=&lt;/span&gt; &lt;span style=&quot;color: #dcdcaa;&quot;&gt;fopen&lt;/span&gt;(&lt;span style=&quot;color: #ce9178;&quot;&gt;&quot;bt01.txt&quot;&lt;/span&gt;,&lt;span style=&quot;color: #ce9178;&quot;&gt;&quot;r&quot;&lt;/span&gt;);&lt;/div&gt;&lt;div&gt;&amp;nbsp; &amp;nbsp; &lt;span style=&quot;color: #9cdcfe;&quot;&gt;f03&lt;/span&gt; &lt;span style=&quot;color: #d4d4d4;&quot;&gt;=&lt;/span&gt; &lt;span style=&quot;color: #dcdcaa;&quot;&gt;fopen&lt;/span&gt;(&lt;span style=&quot;color: #ce9178;&quot;&gt;&quot;bt03.txt&quot;&lt;/span&gt;,&lt;span style=&quot;color: #ce9178;&quot;&gt;&quot;r&quot;&lt;/span&gt;);&lt;/div&gt;&lt;/div&gt;&lt;/div&gt;" style="rounded=0;whiteSpace=wrap;html=1;" parent="1" vertex="1">
          <mxGeometry x="263" y="310" width="325" height="60" as="geometry" />
        </mxCell>
        <mxCell id="t8uLsHS5nV-Fre8a65G6-10" value="" style="edgeStyle=orthogonalEdgeStyle;rounded=0;orthogonalLoop=1;jettySize=auto;html=1;" parent="1" source="t8uLsHS5nV-Fre8a65G6-6" target="t8uLsHS5nV-Fre8a65G6-8" edge="1">
          <mxGeometry relative="1" as="geometry" />
        </mxCell>
        <mxCell id="t8uLsHS5nV-Fre8a65G6-13" value="" style="edgeStyle=orthogonalEdgeStyle;rounded=0;orthogonalLoop=1;jettySize=auto;html=1;" parent="1" source="t8uLsHS5nV-Fre8a65G6-6" target="t8uLsHS5nV-Fre8a65G6-12" edge="1">
          <mxGeometry relative="1" as="geometry" />
        </mxCell>
        <mxCell id="t8uLsHS5nV-Fre8a65G6-6" value="f == null || f01 == null || f03 == null" style="rhombus;whiteSpace=wrap;html=1;rounded=0;" parent="1" vertex="1">
          <mxGeometry x="385.5" y="440" width="80" height="80" as="geometry" />
        </mxCell>
        <mxCell id="t8uLsHS5nV-Fre8a65G6-8" value="return 0" style="shape=parallelogram;perimeter=parallelogramPerimeter;whiteSpace=wrap;html=1;fixedSize=1;" parent="1" vertex="1">
          <mxGeometry x="580" y="450" width="120" height="60" as="geometry" />
        </mxCell>
        <mxCell id="t8uLsHS5nV-Fre8a65G6-17" value="" style="edgeStyle=orthogonalEdgeStyle;rounded=0;orthogonalLoop=1;jettySize=auto;html=1;" parent="1" source="t8uLsHS5nV-Fre8a65G6-12" target="t8uLsHS5nV-Fre8a65G6-16" edge="1">
          <mxGeometry relative="1" as="geometry" />
        </mxCell>
        <mxCell id="t8uLsHS5nV-Fre8a65G6-12" value="&lt;div style=&quot;background-color: rgb(31, 31, 31); font-family: Consolas, &amp;quot;Courier New&amp;quot;, monospace; font-size: 14px; line-height: 19px;&quot;&gt;&lt;div style=&quot;line-height: 19px;&quot;&gt;&lt;div style=&quot;line-height: 19px;&quot;&gt;&lt;div style=&quot;line-height: 19px;&quot;&gt;&lt;div style=&quot;line-height: 19px;&quot;&gt;&lt;div style=&quot;&quot;&gt;&lt;span style=&quot;color: rgb(204, 204, 204);&quot;&gt;fgets(&lt;/span&gt;&lt;font color=&quot;#9cdcfe&quot;&gt;str&lt;/font&gt;&lt;font color=&quot;#cccccc&quot;&gt;, &lt;/font&gt;&lt;span style=&quot;color: rgb(86, 156, 214);&quot;&gt;sizeof&lt;/span&gt;&lt;font color=&quot;#cccccc&quot;&gt;(&lt;/font&gt;&lt;span style=&quot;color: rgb(156, 220, 254);&quot;&gt;x&lt;/span&gt;&lt;font color=&quot;#cccccc&quot;&gt;),&lt;/font&gt;&lt;span style=&quot;color: rgb(156, 220, 254);&quot;&gt;f01&lt;/span&gt;&lt;font color=&quot;#cccccc&quot;&gt;);&lt;/font&gt;&lt;/div&gt;&lt;div style=&quot;&quot;&gt;&lt;font color=&quot;#cccccc&quot;&gt;&amp;nbsp; &amp;nbsp; &lt;/font&gt;&lt;span style=&quot;color: rgb(220, 220, 170);&quot;&gt;fprintf&lt;/span&gt;&lt;font color=&quot;#cccccc&quot;&gt;(&lt;/font&gt;&lt;span style=&quot;color: rgb(156, 220, 254);&quot;&gt;f05&lt;/span&gt;&lt;font color=&quot;#cccccc&quot;&gt;, &lt;/font&gt;&lt;span style=&quot;color: rgb(206, 145, 120);&quot;&gt;&quot;&lt;/span&gt;&lt;span style=&quot;color: rgb(156, 220, 254);&quot;&gt;%s&lt;/span&gt;&lt;span style=&quot;color: rgb(215, 186, 125);&quot;&gt;\n&lt;/span&gt;&lt;span style=&quot;color: rgb(206, 145, 120);&quot;&gt;&quot;&lt;/span&gt;&lt;font color=&quot;#cccccc&quot;&gt;, &lt;/font&gt;&lt;font color=&quot;#9cdcfe&quot;&gt;str&lt;/font&gt;&lt;font color=&quot;#cccccc&quot;&gt;);&lt;/font&gt;&lt;/div&gt;&lt;div style=&quot;color: rgb(204, 204, 204);&quot;&gt;&amp;nbsp; &amp;nbsp; &lt;span style=&quot;color: #c586c0;&quot;&gt;while&lt;/span&gt; (&lt;span style=&quot;color: #dcdcaa;&quot;&gt;fgets&lt;/span&gt;(&lt;span style=&quot;color: #9cdcfe;&quot;&gt;str1&lt;/span&gt;, &lt;span style=&quot;color: #569cd6;&quot;&gt;sizeof&lt;/span&gt;(&lt;span style=&quot;color: #9cdcfe;&quot;&gt;x1&lt;/span&gt;),&lt;span style=&quot;color: #9cdcfe;&quot;&gt;f03&lt;/span&gt;) &lt;span style=&quot;color: #d4d4d4;&quot;&gt;!=&lt;/span&gt; &lt;span style=&quot;color: #569cd6;&quot;&gt;NULL&lt;/span&gt;){&lt;/div&gt;&lt;div style=&quot;&quot;&gt;&lt;span style=&quot;color: rgb(204, 204, 204);&quot;&gt;&amp;nbsp; &amp;nbsp; &amp;nbsp; &amp;nbsp; &lt;span style=&quot;color: #dcdcaa;&quot;&gt;fprintf&lt;/span&gt;(&lt;span style=&quot;color: #9cdcfe;&quot;&gt;f05&lt;/span&gt;, &lt;span style=&quot;color: #ce9178;&quot;&gt;&quot;&lt;/span&gt;&lt;span style=&quot;color: #9cdcfe;&quot;&gt;%s&lt;/span&gt;&lt;span style=&quot;color: #d7ba7d;&quot;&gt;\n&lt;/span&gt;&lt;span style=&quot;color: #ce9178;&quot;&gt;&quot;&lt;/span&gt;, &lt;/span&gt;&lt;font color=&quot;#9cdcfe&quot;&gt;str1&lt;/font&gt;&lt;font color=&quot;#cccccc&quot;&gt;);&lt;/font&gt;&lt;/div&gt;&lt;div style=&quot;color: rgb(204, 204, 204);&quot;&gt;&amp;nbsp; &amp;nbsp; }&lt;/div&gt;&lt;/div&gt;&lt;/div&gt;&lt;/div&gt;&lt;/div&gt;&lt;/div&gt;" style="rounded=0;whiteSpace=wrap;html=1;" parent="1" vertex="1">
          <mxGeometry x="150.5" y="570" width="550" height="60" as="geometry" />
        </mxCell>
        <mxCell id="t8uLsHS5nV-Fre8a65G6-14" value="true" style="text;html=1;strokeColor=none;fillColor=none;align=center;verticalAlign=middle;whiteSpace=wrap;rounded=0;" parent="1" vertex="1">
          <mxGeometry x="528" y="450" width="60" height="30" as="geometry" />
        </mxCell>
        <mxCell id="t8uLsHS5nV-Fre8a65G6-15" value="false" style="text;html=1;strokeColor=none;fillColor=none;align=center;verticalAlign=middle;whiteSpace=wrap;rounded=0;" parent="1" vertex="1">
          <mxGeometry x="440" y="520" width="60" height="30" as="geometry" />
        </mxCell>
        <mxCell id="t8uLsHS5nV-Fre8a65G6-34" value="" style="edgeStyle=orthogonalEdgeStyle;rounded=0;orthogonalLoop=1;jettySize=auto;html=1;" parent="1" source="t8uLsHS5nV-Fre8a65G6-16" target="t8uLsHS5nV-Fre8a65G6-33" edge="1">
          <mxGeometry relative="1" as="geometry" />
        </mxCell>
        <mxCell id="tjU1ZiBi68Wq3k_pRqq8-3" value="" style="edgeStyle=orthogonalEdgeStyle;rounded=0;orthogonalLoop=1;jettySize=auto;html=1;" parent="1" source="t8uLsHS5nV-Fre8a65G6-16" target="t8uLsHS5nV-Fre8a65G6-33" edge="1">
          <mxGeometry relative="1" as="geometry" />
        </mxCell>
        <mxCell id="t8uLsHS5nV-Fre8a65G6-16" value="&lt;div style=&quot;color: rgb(204, 204, 204); background-color: rgb(31, 31, 31); font-family: Consolas, &amp;quot;Courier New&amp;quot;, monospace; font-size: 14px; line-height: 19px;&quot;&gt;&lt;div&gt;fclose(&lt;span style=&quot;color: #9cdcfe;&quot;&gt;f05&lt;/span&gt;);&lt;/div&gt;&lt;div&gt;&amp;nbsp; &amp;nbsp; &lt;span style=&quot;color: #dcdcaa;&quot;&gt;fclose&lt;/span&gt;(&lt;span style=&quot;color: #9cdcfe;&quot;&gt;f01&lt;/span&gt;);&lt;/div&gt;&lt;div&gt;&amp;nbsp; &amp;nbsp; &lt;span style=&quot;color: #dcdcaa;&quot;&gt;fclose&lt;/span&gt;(&lt;span style=&quot;color: #9cdcfe;&quot;&gt;f03&lt;/span&gt;);&lt;/div&gt;&lt;/div&gt;" style="whiteSpace=wrap;html=1;rounded=0;" parent="1" vertex="1">
          <mxGeometry x="365.5" y="710" width="120" height="60" as="geometry" />
        </mxCell>
        <mxCell id="t8uLsHS5nV-Fre8a65G6-37" value="" style="edgeStyle=orthogonalEdgeStyle;rounded=0;orthogonalLoop=1;jettySize=auto;html=1;" parent="1" source="t8uLsHS5nV-Fre8a65G6-33" target="t8uLsHS5nV-Fre8a65G6-36" edge="1">
          <mxGeometry relative="1" as="geometry" />
        </mxCell>
        <mxCell id="t8uLsHS5nV-Fre8a65G6-33" value="&lt;div style=&quot;color: rgb(204, 204, 204); background-color: rgb(31, 31, 31); font-family: Consolas, &amp;quot;Courier New&amp;quot;, monospace; font-size: 14px; line-height: 19px;&quot;&gt;f &lt;span style=&quot;color: #d4d4d4;&quot;&gt;=&lt;/span&gt; &lt;span style=&quot;color: #dcdcaa;&quot;&gt;fopen&lt;/span&gt;(&lt;span style=&quot;color: #ce9178;&quot;&gt;&quot;bt5.txt&quot;&lt;/span&gt;,&lt;span style=&quot;color: #ce9178;&quot;&gt;&quot;r&quot;&lt;/span&gt;);&lt;/div&gt;" style="whiteSpace=wrap;html=1;rounded=0;" parent="1" vertex="1">
          <mxGeometry x="310" y="840" width="230" height="60" as="geometry" />
        </mxCell>
        <mxCell id="t8uLsHS5nV-Fre8a65G6-39" value="" style="edgeStyle=orthogonalEdgeStyle;rounded=0;orthogonalLoop=1;jettySize=auto;html=1;" parent="1" source="t8uLsHS5nV-Fre8a65G6-36" target="t8uLsHS5nV-Fre8a65G6-38" edge="1">
          <mxGeometry relative="1" as="geometry" />
        </mxCell>
        <mxCell id="t8uLsHS5nV-Fre8a65G6-36" value="&lt;br&gt;&lt;div style=&quot;color: rgb(204, 204, 204); background-color: rgb(31, 31, 31); font-family: Consolas, &amp;quot;Courier New&amp;quot;, monospace; font-weight: normal; font-size: 14px; line-height: 19px;&quot;&gt;&lt;div&gt;&lt;span style=&quot;color: #cccccc;&quot;&gt;&amp;nbsp;&lt;/span&gt;&lt;span style=&quot;color: #c586c0;&quot;&gt;while&lt;/span&gt;&lt;span style=&quot;color: #cccccc;&quot;&gt; (&lt;/span&gt;&lt;span style=&quot;color: #d4d4d4;&quot;&gt;!&lt;/span&gt;&lt;span style=&quot;color: #dcdcaa;&quot;&gt;feof&lt;/span&gt;&lt;span style=&quot;color: #cccccc;&quot;&gt;(&lt;/span&gt;&lt;span style=&quot;color: #9cdcfe;&quot;&gt;f05&lt;/span&gt;&lt;span style=&quot;color: #cccccc;&quot;&gt;)){&lt;/span&gt;&lt;/div&gt;&lt;div&gt;&lt;span style=&quot;color: #cccccc;&quot;&gt;&amp;nbsp; &amp;nbsp; &amp;nbsp; &amp;nbsp; &lt;/span&gt;&lt;span style=&quot;color: #dcdcaa;&quot;&gt;fgets&lt;/span&gt;&lt;span style=&quot;color: #cccccc;&quot;&gt;(&lt;/span&gt;&lt;span style=&quot;color: #9cdcfe;&quot;&gt;str&lt;/span&gt;&lt;span style=&quot;color: #cccccc;&quot;&gt;, &lt;/span&gt;&lt;span style=&quot;color: #569cd6;&quot;&gt;sizeof&lt;/span&gt;&lt;span style=&quot;color: #cccccc;&quot;&gt;(&lt;/span&gt;&lt;span style=&quot;color: #9cdcfe;&quot;&gt;x&lt;/span&gt;&lt;span style=&quot;color: #cccccc;&quot;&gt;), &lt;/span&gt;&lt;span style=&quot;color: #9cdcfe;&quot;&gt;f05&lt;/span&gt;&lt;span style=&quot;color: #cccccc;&quot;&gt;);&lt;/span&gt;&lt;/div&gt;&lt;div&gt;&lt;span style=&quot;color: #cccccc;&quot;&gt;&amp;nbsp; &amp;nbsp; &amp;nbsp; &amp;nbsp; &lt;/span&gt;&lt;span style=&quot;color: #dcdcaa;&quot;&gt;printf&lt;/span&gt;&lt;span style=&quot;color: #cccccc;&quot;&gt;(&lt;/span&gt;&lt;span style=&quot;color: #ce9178;&quot;&gt;&quot;&lt;/span&gt;&lt;span style=&quot;color: #9cdcfe;&quot;&gt;%s&lt;/span&gt;&lt;span style=&quot;color: #ce9178;&quot;&gt;&quot;&lt;/span&gt;&lt;span style=&quot;color: #cccccc;&quot;&gt;,&lt;/span&gt;&lt;span style=&quot;color: #9cdcfe;&quot;&gt;str&lt;/span&gt;&lt;span style=&quot;color: #cccccc;&quot;&gt;);&lt;/span&gt;&lt;/div&gt;&lt;div&gt;&lt;span style=&quot;color: #cccccc;&quot;&gt;&amp;nbsp; &amp;nbsp; }&lt;/span&gt;&lt;/div&gt;&lt;/div&gt;&lt;br&gt;" style="whiteSpace=wrap;html=1;rounded=0;" parent="1" vertex="1">
          <mxGeometry x="243" y="980" width="365" height="60" as="geometry" />
        </mxCell>
        <mxCell id="t8uLsHS5nV-Fre8a65G6-41" value="" style="edgeStyle=orthogonalEdgeStyle;rounded=0;orthogonalLoop=1;jettySize=auto;html=1;" parent="1" source="t8uLsHS5nV-Fre8a65G6-38" target="t8uLsHS5nV-Fre8a65G6-40" edge="1">
          <mxGeometry relative="1" as="geometry" />
        </mxCell>
        <mxCell id="t8uLsHS5nV-Fre8a65G6-38" value="fclose(f05)" style="whiteSpace=wrap;html=1;rounded=0;" parent="1" vertex="1">
          <mxGeometry x="365.5" y="1310" width="120" height="60" as="geometry" />
        </mxCell>
        <mxCell id="t8uLsHS5nV-Fre8a65G6-40" value="end" style="ellipse;whiteSpace=wrap;html=1;rounded=0;" parent="1" vertex="1">
          <mxGeometry x="385.5" y="1620" width="80" height="80" as="geometry" />
        </mxCell>
        <mxCell id="tjU1ZiBi68Wq3k_pRqq8-2" value="" style="edgeStyle=orthogonalEdgeStyle;rounded=0;orthogonalLoop=1;jettySize=auto;html=1;" parent="1" source="t8uLsHS5nV-Fre8a65G6-1" target="tjU1ZiBi68Wq3k_pRqq8-1" edge="1">
          <mxGeometry relative="1" as="geometry">
            <mxPoint x="425" y="-70" as="sourcePoint" />
            <mxPoint x="425" y="180" as="targetPoint" />
          </mxGeometry>
        </mxCell>
        <mxCell id="tjU1ZiBi68Wq3k_pRqq8-1" value="str1[20]&lt;br&gt;str[20]" style="rounded=0;whiteSpace=wrap;html=1;" parent="1" vertex="1">
          <mxGeometry x="365.5" width="120" height="60" as="geometry" />
        </mxCell>
      </root>
    </mxGraphModel>
  </diagram>
</mxfile>
